<svg xmlns="http://www.w3.org/2000/svg" width="400.38" height="44.88" viewBox="0 0 375.35 42.07">
  <g stroke="#fff" stroke-linejoin="round" stroke-miterlimit="9.92">
    <path d="M19.74 36.08a19.78 19.78 0 007.43-15.38c0-.3-.08-.67-.08-.97M55.37 26.25h0c0 6 4.87 10.95 10.87 10.95 6 0 10.95-4.95 10.95-10.95M96.17 37.73A36.72 36.72 0 00114.02 8.7M129.84 37.28a36.75 36.75 0 0024.83-15.08M3.17 4.35V35.1M9.7 13.13h26.32M27.24 4.35v15.38M46.6 12.08h19.72M46.6 24.08h19.72M55.37 4.35v21.98M83.87 8.78h30.22M129.92 4.35v32.93M77.27 24.08v2.25" fill="none" stroke-width="2.79" stroke-linecap="round"/>
    <path d="M273.47 7.76l-6.6 17.55 8.77-2.17-2.17 10.95 6.6-15.38-8.78 2.18" fill="#fff" fill-rule="evenodd" stroke-width="1.01"/>
    <path d="M273.47 7.76l-6.6 17.55M266.87 25.31l8.77-2.17M275.64 23.14l-2.17 10.95M273.47 34.09l6.6-15.38M280.07 18.71l-8.78 2.18M271.3 20.89l2.17-13.13" fill="none" stroke-width=".08" stroke-linecap="round"/>
    <path d="M354.54 29.59h0c0-3.6-3-6.53-6.6-6.53a6.53 6.53 0 00-6.52 6.53 6.6 6.6 0 006.52 6.6c3.6 0 6.6-3 6.6-6.6M176.87 7.76h0a4.23 4.23 0 00-4.28 4.28M207.54 12.04h0c0-2.4-1.95-4.28-4.35-4.28M190.14 34.01h0c0 2.4 1.88 4.35 4.28 4.35M207.62 38.36h0c2.4 0 4.35-1.95 4.35-4.35M295.52 18.86A22.05 22.05 0 00307.97 3.2M309.02 17.44a21.61 21.61 0 009.9-14.25M372.1 26.81h0c0-3.3-1.66-6.3-4.43-8.17M369.84 29.59h0c1.2 0 2.18-.98 2.18-2.18M174.77 3.41h30.67M172.6 18.71v-6.6M176.94 7.76h26.33M207.7 12.11v6.6M176.94 12.11h8.78M176.94 16.54h8.78M194.5 12.11h8.77M194.5 16.54h8.77M190.14 3.41v16.65M176.94 23.59v10.5M176.94 23.59h26.33M203.27 23.59v10.5M203.27 34.09h-26.33M176.94 28.84h26.33M190.14 25.31v8.78M194.5 38.44h13.2M212.04 29.66l-4.35 4.43M207.7 34.09h8.77M216.47 34.09l-4.43-4.43M216.47 20.89h35.02M220.82 5.59h24.15M244.97 5.59l-10.95 8.77M234.02 14.36v21.9M229.6 36.26h4.42M260.27 7.76h26.32M255.92 34.09h35.1" fill="none" stroke-width="2.79" stroke-linecap="round"/>
    <path d="M275.64 23.14l-2.17 10.95" fill="none" stroke-width=".68" stroke-linecap="round"/>
    <path d="M315.1 12.11h15.37M319.52 12.11v26.33M319.52 20.89h10.95M319.52 29.66h10.95M348.02 3.41v4.35M339.24 7.76h17.55M339.24 18.71h17.55M339.24 7.76l8.78 10.95M356.8 7.76l-8.78 10.95M361.14 5.59v32.85M361.14 5.59h11.03M372.17 5.59l-4.43 13.12M369.92 29.66h-4.35M304.14 12.11V38.9" fill="none" stroke-width="2.79" stroke-linecap="round"/>
    <path d="M273.47 7.76l-6.6 17.55M266.87 25.31l8.77-2.17M275.64 23.14l-2.17 10.95M273.47 34.09l6.6-15.38M280.07 18.71l-8.78 2.18M271.3 20.89l2.17-13.13" fill="none" stroke-width="1.36" stroke-linecap="round"/>
  </g>
</svg>
