<svg xmlns="http://www.w3.org/2000/svg" width="650.18" height="117.63" viewBox="0 0 172.03 31.12">
  <g fill="#fff" stroke-width=".26">
    <path d="M7.08.68v18.01q0 2.34-1.15 3.56-1.12 1.22-4.17 2.2L0 21.2q1.8-.64 2.2-1.18.44-.55.44-1.97V.68zM15.3 18.8q0 .7.58 1.28.58.54 1.53.54.91 0 1.83-.4.94-.4 1.8-1.22v-2.5H17.7q-1.15 0-1.8.7-.6.72-.6 1.6zm2.18 5.31q-3.02 0-4.48-1.45-1.45-1.5-1.45-3.86 0-2.54 1.73-3.9 1.72-1.35 4.5-1.35H21q-.04-1.26-.75-1.93-.68-.71-1.9-.71-1.15 0-2.5.33-1.36.3-2.27.75L12.4 8.33q.94-.64 2.87-1.05 1.97-.44 3.02-.44 2.94 0 5.04 1.73 2.1 1.7 2.1 4.33v10.8h-2.27l-1.08-1.38q-.91.7-2.17 1.25-1.22.54-2.43.54zM37.02 20.35q2.27 0 3.18-1.62.91-1.66.91-3.35 0-1.93-.8-3.46-.82-1.52-3.3-1.52-.7 0-1.48.27-.75.24-1.43.68v8.06q.68.4 1.43.67.77.27 1.49.27zM29.73 7.28h2.24l.95 1.22q1.12-.85 2.6-1.35 1.5-.51 2.65-.51 3.62 0 5.55 2.5 1.93 2.51 1.93 6.24 0 3.72-2 6.23-1.96 2.5-5.48 2.5-.88 0-2-.3-1.08-.3-2.07-.85v7.82l-4.37.34zM52.46 18.8q0 .7.58 1.28.57.54 1.52.54.91 0 1.83-.4.95-.4 1.8-1.22v-2.5h-3.33q-1.15 0-1.8.7-.6.72-.6 1.6zm2.17 5.31q-3.02 0-4.47-1.45-1.46-1.5-1.46-3.86 0-2.54 1.73-3.9 1.72-1.35 4.5-1.35h3.22q-.03-1.26-.75-1.93-.67-.71-1.9-.71-1.14 0-2.5.33-1.35.3-2.27.75l-1.18-3.66q.95-.64 2.88-1.05 1.96-.44 3.01-.44 2.95 0 5.05 1.73 2.1 1.7 2.1 4.33v10.8h-2.27l-1.09-1.38q-.91.7-2.16 1.25-1.22.54-2.44.54zM75.66 7.28l.88 3.52q-1.12 0-2.6.65-1.47.64-2.89 1.9V23.7h-4.4V7.28h2.3l1.46 2.4q1.01-.87 2.47-1.62 1.46-.78 2.78-.78zM80.98 0q1.04 0 1.76.71.74.71.74 1.76t-.74 1.76q-.72.71-1.76.71-1.02 0-1.73-.7-.71-.72-.71-1.77t.7-1.76Q79.97 0 80.99 0zm2.2 7.28v16.43h-4.4V7.28z"/>
    <path d="M98.08 16.73l-5.52-7.08v14.06h-4.37V.68h2.78l7.79 10.63L105.83.68h2.68V23.7h-4.44V10.43l-4.3 6.06z"/>
    <path d="M121.13 24.11q-4.27 0-6.74-2.33-2.44-2.34-2.44-6.27 0-3.93 2.2-6.3 2.23-2.37 6.06-2.37 3.86 0 5.66 2.57 1.83 2.54 1.83 6.03v1.36h-11.08q.3 1.62 1.5 2.6 1.18.95 3.1.95 1.13 0 2-.27.92-.3 2.1-.84l1.3 3.18q-1.16.88-2.82 1.29-1.62.4-2.67.4zm2.4-10.26q-.34-1.66-1.22-2.44-.88-.81-2.2-.81-1.35 0-2.27.85-.91.81-1.18 2.4zM141.24 23.37q-.54.44-1.56.7-.98.31-1.76.31-3.04 0-4.8-1.52-1.73-1.56-1.73-4.4V10.7h-2.2V7.32h2.2v-3.9l4.37-.78v4.68h2.98l1.35 3.38h-4.33v6.98q0 1.29.6 2.13.62.81 1.8.81.44 0 .88-.1t.92-.34zM152.18 24.11q-4.27 0-6.74-2.33Q143 19.44 143 15.5q0-3.93 2.2-6.3 2.24-2.37 6.07-2.37 3.86 0 5.65 2.57 1.83 2.54 1.83 6.03v1.36h-11.07q.3 1.62 1.49 2.6 1.18.95 3.11.95 1.12 0 2-.27.92-.3 2.1-.84l1.29 3.18q-1.15.88-2.81 1.29-1.63.4-2.68.4zm2.4-10.26q-.33-1.66-1.21-2.44-.88-.81-2.2-.81-1.36 0-2.27.85-.92.81-1.19 2.4zM171.15 7.28l.88 3.52q-1.12 0-2.61.65-1.46.64-2.88 1.9V23.7h-4.4V7.28h2.3l1.46 2.4q1.01-.87 2.47-1.62 1.46-.78 2.78-.78z"/>
  </g>
</svg>
