<svg xmlns="http://www.w3.org/2000/svg" width="300.4" height="300.4" viewBox="0 0 281.6 281.6">
  <g transform="translate(-145.6 -270.6)" fill-rule="evenodd">
    <rect width="250" height="250" x="161.4" y="286.4" ry="9" fill="#fff"/>
    <path d="M179.2 270.6a33.8 33.8 0 00-33.6 33.7v214.3a33.8 33.8 0 0033.6 33.6h214.3a33.8 33.8 0 0033.7-33.6V304.3a33.8 33.8 0 00-33.7-33.7H179.2zm0 20h53.1l-2.2 7c-2.3 6.4-6 8.9-11.8 10.4-15 4-38.4 18.9-52.7 36.5v-40.2c0-7.8 5.9-13.7 13.6-13.7zm98.5 0h115.8c7.8 0 13.7 6 13.7 13.7v214.3c0 7.7-6 13.6-13.7 13.6H179.2c-7.7 0-13.6-5.9-13.6-13.6v-42c53.4 70.3 159.5 9.7 117.3-69.3-14.8-27.8-37-27.9-52-15.8-9.4 7.6-9.3 18.8-9.4 21.3-1.1 23.5 24.9 25.8 8 36.6-12.7 8-53.8-40.9-10.2-76.5 33.3-27.3 70.9-4.9 81.2 24.3 1.9 5.4-.1 10.7 1 15 6 24 33.1 27.2 46.3 16.6 32.8-26.3 0-85.9-43.1-112-9.8-5.8-25.5-6.3-25.5-16.4 0-2.7-.5-6.1-1.5-9.8z" fill="#70ad47"/>
  </g>
</svg>
